<?xml version="1.0" standalone="no"?>
<!DOCTYPE svg PUBLIC "-//W3C//DTD SVG 20010904//EN"
 "http://www.w3.org/TR/2001/REC-SVG-20010904/DTD/svg10.dtd">
<svg version="1.0" xmlns="http://www.w3.org/2000/svg"
 width="1027.000000pt" height="1027.000000pt" viewBox="0 0 1027.000000 1027.000000"
 preserveAspectRatio="xMidYMid meet">
<metadata>
Created by potrace 1.14, written by Peter Selinger 2001-2017
</metadata>
<g transform="translate(0.000000,1027.000000) scale(0.100000,-0.100000)"
fill="#000000" stroke="none">
<path d="M6680 10010 c0 -5 -9 -11 -19 -15 -10 -3 -24 -19 -31 -36 -7 -16 -26
-49 -43 -71 -16 -23 -41 -69 -54 -103 -14 -33 -33 -78 -44 -101 -10 -22 -19
-47 -19 -55 0 -8 -16 -37 -35 -64 -19 -28 -45 -72 -58 -100 -13 -27 -34 -59
-46 -69 -12 -11 -27 -39 -33 -63 -5 -24 -14 -43 -19 -43 -5 0 -9 -5 -9 -12 0
-11 -46 -86 -61 -98 -9 -8 -25 -48 -28 -70 0 -5 -17 -25 -37 -44 -23 -22 -34
-42 -33 -58 4 -44 -1 -55 -36 -74 -24 -12 -35 -26 -35 -40 0 -41 -11 -54 -45
-54 -38 0 -81 -35 -91 -74 -7 -28 9 -56 33 -56 7 0 16 -6 19 -14 8 -20 102
-28 361 -30 153 -1 225 2 243 11 45 21 54 20 59 -12 5 -22 18 -35 56 -56 28
-15 62 -28 78 -28 20 -1 27 -6 27 -21 0 -47 162 -180 220 -180 16 0 35 7 44
15 8 8 19 15 25 15 15 0 25 45 16 78 -3 15 -9 43 -12 64 -6 42 -35 78 -64 78
-30 0 -59 18 -59 38 0 32 -52 53 -115 46 -49 -6 -58 -4 -75 14 -21 22 -32 65
-24 87 4 9 19 14 40 13 48 -2 58 11 38 51 -13 26 -14 40 -5 74 6 26 7 43 1 45
-15 5 -12 31 5 48 20 20 19 88 -1 149 -13 37 -14 52 -5 66 13 22 15 116 2 121
-21 7 -40 190 -22 212 13 16 5 168 -11 200 -6 10 -6 21 -2 25 10 7 11 31 2 46
-3 6 -4 21 -3 35 1 14 -3 32 -9 40 -9 13 -8 13 4 3 23 -17 48 0 31 21 -9 11
-19 13 -36 6 -20 -7 -22 -6 -18 11 4 15 2 18 -11 13 -9 -3 -16 -2 -16 4 0 5
-9 12 -20 15 -11 3 -20 1 -20 -3z m-220 -480 c0 -5 -4 -10 -10 -10 -5 0 -10 5
-10 10 0 6 5 10 10 10 6 0 10 -4 10 -10z m-26 -55 c-5 -20 -9 -24 -18 -14 -8
8 -8 13 2 16 6 3 12 12 12 21 0 8 2 13 5 10 4 -3 3 -18 -1 -33z m-30 -62 c-7
-16 -14 -34 -14 -40 0 -7 -4 -13 -10 -13 -5 0 -10 -8 -11 -17 0 -11 -3 -13 -6
-5 -6 14 35 102 47 102 5 0 2 -12 -6 -27z"/>
<path d="M6810 9800 c0 -5 5 -10 11 -10 5 0 7 5 4 10 -3 6 -8 10 -11 10 -2 0
-4 -4 -4 -10z"/>
<path d="M1720 9756 c-86 -64 -121 -110 -165 -222 -15 -38 -31 -74 -36 -80 -5
-6 -14 -38 -20 -70 -6 -33 -15 -64 -19 -69 -5 -6 -12 -35 -16 -65 -4 -30 -11
-63 -16 -74 -14 -26 -36 -148 -53 -294 -8 -67 -17 -126 -20 -131 -3 -5 -8
-114 -11 -243 -7 -292 11 -566 47 -718 6 -25 13 -56 15 -69 3 -13 11 -36 19
-52 8 -15 15 -36 15 -46 0 -10 6 -30 14 -45 8 -15 17 -41 21 -57 4 -17 13 -45
22 -61 8 -17 12 -38 8 -48 -4 -9 -11 -61 -15 -114 -7 -78 -6 -107 5 -139 17
-46 20 -99 6 -99 -14 0 -21 -40 -11 -65 5 -13 4 -41 -1 -66 -5 -24 -14 -65
-20 -90 -5 -25 -10 -74 -11 -108 0 -33 -5 -61 -9 -61 -5 0 -9 -5 -9 -11 0 -6
-9 -24 -21 -40 -14 -21 -22 -49 -24 -95 -3 -43 -10 -73 -20 -84 -15 -16 -15
-29 -6 -106 11 -91 9 -104 -15 -104 -11 0 -12 -5 -5 -17 6 -12 4 -33 -6 -63
-12 -36 -13 -53 -4 -90 6 -25 13 -50 14 -57 5 -22 18 -28 72 -33 76 -7 60 -31
-25 -36 -35 -3 -67 -7 -72 -10 -16 -10 -8 -24 15 -25 34 -1 -69 -30 -141 -39
-35 -4 -70 -14 -77 -21 -14 -14 -14 -19 11 -189 10 -73 25 -77 191 -44 39 7
115 16 170 18 54 2 79 2 56 -1 -24 -2 -43 -8 -43 -14 0 -5 5 -9 10 -9 6 0 10
-7 10 -15 0 -20 19 -19 27 1 3 8 15 14 27 13 29 -2 86 12 86 21 0 4 8 7 18 6
17 -1 20 15 7 46 -5 13 -2 15 14 11 16 -4 21 1 26 31 4 20 5 45 2 56 -3 11 0
23 7 28 7 4 18 16 23 27 9 15 8 22 -5 31 -14 10 -10 15 26 38 23 14 50 26 61
26 11 0 73 9 138 21 115 20 155 26 318 49 44 6 109 16 145 21 36 5 103 14 150
19 47 6 114 15 150 21 36 5 99 14 141 19 42 4 97 11 121 15 l45 7 7 -59 c21
-178 17 -173 118 -160 117 15 172 14 174 -3 17 -128 30 -193 40 -197 8 -3 57
0 111 6 118 13 117 13 127 -97 8 -88 23 -152 36 -152 4 0 61 7 125 16 64 9
118 14 121 11 3 -2 11 -50 18 -106 7 -56 18 -107 24 -113 8 -8 35 -8 99 1 155
22 216 30 313 41 52 7 111 16 131 21 20 5 51 9 69 9 18 0 60 4 94 10 33 5 99
14 146 20 107 14 181 25 345 50 122 18 265 38 450 62 89 11 107 20 100 52 -2
11 -7 51 -10 87 l-6 66 25 -4 c25 -5 26 -8 26 -73 0 -42 4 -70 11 -72 19 -6
97 36 110 59 9 18 16 20 30 12 17 -8 19 -6 19 20 0 47 16 77 48 90 44 19 55
80 12 66 -23 -7 -40 21 -40 66 0 30 2 31 30 26 29 -6 30 -5 30 31 0 40 14 66
40 75 9 2 1 8 -20 14 l-35 10 40 7 c75 14 113 29 118 45 2 10 -4 68 -14 131
-10 62 -17 115 -15 117 9 10 347 55 426 57 l45 1 7 -55 c14 -98 29 -159 40
-162 5 -2 47 2 91 9 131 19 123 22 135 -49 6 -35 14 -88 17 -118 9 -87 5 -85
141 -67 66 9 160 21 209 27 50 7 142 21 205 32 63 10 171 22 240 25 69 3 133
10 143 15 21 11 100 25 206 38 41 5 113 16 160 25 100 17 313 50 389 60 33 4
56 13 59 22 3 8 0 53 -6 101 -6 48 -13 103 -14 122 l-2 34 110 16 c153 21 149
17 135 126 -7 49 -13 97 -13 108 -2 16 13 22 103 40 l105 21 -1 35 c0 19 -8
91 -17 160 -10 69 -21 166 -25 215 l-7 90 -70 -1 c-38 0 -108 -8 -155 -17 -47
-9 -128 -21 -180 -27 -52 -7 -113 -16 -135 -20 -22 -5 -83 -14 -135 -21 -52
-6 -138 -18 -190 -26 -52 -7 -133 -18 -180 -23 -47 -5 -114 -14 -150 -19 -178
-27 -280 -41 -435 -61 -93 -12 -242 -32 -330 -46 -200 -30 -404 -54 -472 -54
-28 0 -53 -4 -55 -9 -3 -8 -75 -15 -129 -12 -30 2 -31 30 -1 37 15 4 34 15 43
26 15 20 16 19 53 -6 20 -14 44 -22 52 -19 16 6 9 23 -9 23 -7 0 -20 9 -30 20
-9 11 -23 20 -31 20 -11 0 -9 12 12 50 23 44 25 52 12 60 -11 7 -17 4 -24 -10
-13 -29 -28 -24 -26 8 1 15 2 36 1 47 -1 17 -3 17 -11 5 -9 -13 -10 -13 -10 0
-1 11 -4 10 -16 -5 -8 -11 -13 -27 -11 -36 3 -9 0 -23 -5 -30 -7 -11 -11 -10
-21 5 -7 11 -22 30 -34 42 -18 16 -23 33 -23 68 0 27 -6 53 -14 61 -8 8 -16
50 -20 101 -6 71 -11 91 -27 102 -12 8 -19 25 -19 47 0 42 -16 85 -37 100 -23
17 -10 44 27 56 37 14 42 44 5 37 -14 -3 -25 -2 -25 3 0 4 -17 25 -38 46 -21
21 -37 44 -35 50 3 7 -9 13 -29 15 -30 3 -33 6 -36 41 -3 29 -7 37 -23 37 -10
0 -19 -6 -20 -12 0 -7 -5 -3 -11 9 -12 25 3 53 28 53 8 0 14 5 15 10 4 40 1
58 -15 82 -14 21 -24 26 -41 22 -17 -4 -30 1 -46 20 -12 14 -29 26 -36 26 -7
0 -13 8 -13 18 0 10 -6 26 -13 36 -11 15 -17 16 -40 5 -25 -11 -28 -17 -24
-55 4 -36 2 -41 -13 -37 -12 3 -16 12 -13 26 4 22 4 21 -16 -2 -16 -18 -21
-20 -21 -7 0 9 -4 16 -10 16 -5 0 -10 5 -10 10 0 6 8 10 18 10 14 0 15 2 2 10
-13 8 -13 11 -1 22 10 10 12 10 7 1 -4 -8 -1 -13 8 -13 8 0 17 13 21 31 8 37
-16 69 -52 69 -22 0 -30 -21 -24 -68 2 -16 -25 -26 -46 -16 -26 11 -37 11 -45
-1 -4 -5 -15 -10 -25 -10 -12 0 -17 -6 -15 -17 2 -13 -4 -18 -20 -18 -20 -1
-21 -2 -5 -11 29 -17 20 -26 -32 -33 -50 -7 -72 -30 -55 -57 10 -17 -18 -29
-53 -23 -28 5 -33 3 -33 -12 0 -24 10 -39 33 -47 9 -3 17 -13 17 -21 0 -22 22
-25 65 -10 37 12 41 12 62 -8 13 -12 23 -27 23 -35 0 -7 3 -13 8 -13 4 0 26
-18 49 -41 24 -22 47 -37 53 -34 6 4 32 -9 58 -28 26 -18 54 -36 63 -39 9 -4
23 -21 32 -40 9 -18 26 -39 37 -46 14 -8 20 -20 17 -31 -2 -10 3 -23 13 -29
10 -6 24 -28 30 -48 10 -30 10 -38 -1 -45 -22 -14 -38 -10 -50 12 -15 30 -31
10 -23 -29 5 -22 12 -32 25 -32 11 0 19 7 20 18 0 10 3 12 6 5 2 -7 9 -13 15
-13 6 0 7 7 4 16 -3 8 -2 13 2 10 5 -3 15 -23 22 -46 7 -23 21 -45 29 -50 32
-19 48 -36 54 -55 5 -16 1 -23 -21 -32 -83 -35 -107 -43 -120 -38 -43 16 -56
-58 -18 -100 20 -22 23 -31 15 -51 -5 -14 -9 -48 -9 -77 0 -40 3 -48 12 -39
19 19 25 14 32 -23 4 -20 11 -33 16 -30 6 3 7 -1 4 -9 -6 -16 20 -49 46 -59 9
-3 4 -6 -12 -6 -15 -1 -39 -6 -55 -12 -34 -13 -101 -25 -213 -39 -47 -6 -125
-17 -175 -24 -49 -8 -137 -19 -195 -26 -58 -6 -123 -15 -145 -20 -56 -12 -153
-26 -350 -50 -320 -39 -386 -48 -516 -70 -30 -6 -74 -10 -98 -10 -36 0 -41 2
-33 16 5 10 6 32 1 53 -9 42 -4 52 14 27 21 -28 73 -13 81 22 4 19 18 33 48
47 30 14 42 26 43 43 2 20 -3 22 -54 22 -31 0 -72 4 -92 9 -45 10 -56 4 -61
-34 -2 -24 -10 -32 -37 -41 -24 -8 -38 -21 -49 -45 -23 -54 -172 -114 -172
-69 0 5 -9 1 -20 -10 -26 -26 -26 -27 13 -35 17 -4 36 -10 41 -13 6 -3 33 -5
60 -3 l51 2 -29 -16 c-19 -10 -56 -15 -112 -15 -45 0 -86 -4 -89 -10 -3 -5
-23 -10 -43 -10 -20 0 -73 -7 -117 -15 -137 -25 -404 -66 -555 -85 -239 -31
-451 -60 -510 -70 -75 -14 -324 -48 -435 -60 -49 -6 -109 -13 -132 -16 -39 -6
-43 -4 -43 14 0 11 -3 27 -6 35 -4 10 5 16 30 21 26 5 38 14 48 37 8 18 25 34
46 41 23 9 32 18 32 34 0 14 13 33 33 48 17 14 41 39 52 56 11 17 35 39 53 50
22 14 32 27 32 44 0 16 14 39 35 60 19 20 35 40 35 45 0 21 119 129 149 136
17 4 37 15 44 24 6 10 30 21 52 25 22 4 62 21 89 39 27 18 61 39 76 47 33 18
184 170 193 194 4 9 20 22 37 28 17 5 37 23 46 40 8 16 26 33 40 38 13 5 27
18 31 27 9 26 34 53 48 53 15 0 75 54 75 67 0 5 8 16 18 25 16 15 57 72 105
147 22 35 78 61 86 40 2 -6 10 2 17 17 8 15 13 33 10 40 -4 11 114 127 150
147 8 4 25 32 39 61 24 51 54 76 93 76 10 0 27 7 39 15 16 11 28 13 47 5 30
-11 52 -5 60 17 9 23 -3 34 -30 27 -33 -8 -74 3 -74 21 0 8 5 15 10 15 14 0
34 49 35 85 0 23 5 31 22 33 27 4 54 32 30 32 -9 0 -17 13 -21 33 -10 51 -26
66 -79 72 -34 4 -55 1 -75 -11 -24 -14 -38 -15 -93 -6 -36 5 -76 8 -90 5 -15
-3 -42 4 -65 16 -21 12 -49 21 -61 21 -15 0 -31 12 -45 35 -13 18 -32 38 -44
44 -25 11 -34 48 -27 112 l4 45 -51 14 c-29 8 -58 22 -65 33 -15 22 -21 15
-30 -34 -5 -29 -3 -39 12 -50 10 -8 20 -24 20 -37 2 -23 -6 -22 -37 4 -8 7
-19 13 -25 13 -5 0 -14 15 -20 33 -25 77 -38 98 -66 110 -16 7 -36 28 -45 46
-8 18 -23 36 -32 39 -9 4 -29 15 -44 25 -14 10 -35 18 -47 18 -13 0 -26 12
-37 33 -9 17 -23 36 -32 41 -45 26 -92 80 -92 106 0 36 -29 60 -73 60 -35 0
-37 2 -37 31 0 56 -45 112 -100 124 -16 4 -36 16 -44 27 -8 11 -19 17 -25 13
-6 -3 -11 -1 -11 4 0 6 -20 16 -45 22 -49 12 -63 29 -58 69 1 14 0 40 -3 58
-4 27 -9 32 -34 32 -25 0 -29 4 -35 39 -3 22 -2 56 4 76 12 44 5 65 -21 65
-11 0 -36 8 -55 17 -32 15 -39 15 -77 2 -22 -9 -61 -15 -86 -15 -39 1 -45 4
-48 24 -3 19 -9 22 -48 22 -37 0 -46 4 -53 22 -5 14 -10 17 -15 10 -5 -8 -16
-4 -34 14 -22 21 -81 55 -94 54 -2 0 -23 -16 -48 -34z m-70 -316 c0 -5 -4 -10
-10 -10 -5 0 -10 5 -10 10 0 6 5 10 10 10 6 0 10 -4 10 -10z m632 -93 c12 -18
4 -32 -20 -35 -14 -2 -22 2 -22 11 0 8 -7 18 -16 21 -8 3 -12 11 -9 17 8 13
56 3 67 -14z m55 -79 c11 -13 26 -41 33 -62 12 -37 11 -40 -11 -57 -13 -10
-20 -19 -16 -19 13 0 -21 -44 -36 -46 -8 -1 -14 10 -15 28 -2 23 2 31 18 35
26 7 25 17 -2 49 -24 27 -28 48 -15 77 10 23 19 22 44 -5z m139 -44 c-4 -9 -9
-14 -13 -11 -3 4 -12 -1 -19 -11 -7 -9 -16 -13 -20 -9 -5 4 5 19 21 32 33 25
41 25 31 -1z m-228 -116 c3 -14 -3 -18 -23 -18 -17 0 -24 4 -19 11 3 6 0 15
-7 20 -10 7 -5 9 16 7 19 -2 31 -9 33 -20z m272 -18 c0 -5 -10 -10 -22 -10
-19 0 -20 2 -8 10 19 13 30 13 30 0z m-140 -30 c12 -7 12 -12 3 -21 -15 -15
-68 5 -58 21 8 13 35 13 55 0z m3490 -971 c0 -11 -4 -18 -10 -14 -5 3 -7 12
-3 20 7 21 13 19 13 -6z m-186 -86 c7 -8 11 -8 51 -11 14 -2 16 -5 8 -13 -6
-6 -9 -17 -7 -23 3 -7 -7 -18 -21 -24 -17 -8 -24 -8 -20 -1 4 5 0 16 -8 22
-18 14 -32 57 -19 57 5 0 12 -3 16 -7z m-166 -68 c2 -2 -1 -6 -6 -9 -5 -3 -18
4 -28 16 -19 21 -19 21 6 8 14 -7 26 -14 28 -15z m-3601 -467 c-3 -7 -5 -2 -5
12 0 14 2 19 5 13 2 -7 2 -19 0 -25z m4174 -358 c6 0 7 -5 4 -10 -4 -6 -10 -8
-15 -5 -5 3 -12 -6 -16 -20 -7 -27 -34 -35 -34 -9 0 27 21 56 37 50 8 -3 19
-6 24 -6z m-4316 -106 c23 -25 24 -28 7 -40 -9 -7 -23 -14 -29 -14 -12 0 -43
49 -43 70 0 20 41 10 65 -16z m4503 -111 c-10 -2 -26 -2 -35 0 -10 3 -2 5 17
5 19 0 27 -2 18 -5z m2742 -132 c0 -5 -7 -12 -16 -15 -24 -9 -28 -7 -14 9 14
17 30 20 30 6z m-4740 -14 c0 -19 -10 -27 -26 -20 -21 8 -17 33 6 33 11 0 20
-6 20 -13z m3271 -22 c13 -59 31 -217 25 -223 -8 -7 -86 -19 -183 -28 l-73 -7
0 39 c0 21 -7 77 -15 123 -8 46 -13 87 -9 90 6 7 211 39 233 37 8 0 18 -15 22
-31z m-497 -53 c3 -10 10 -49 16 -87 5 -39 12 -88 16 -111 l6 -40 -53 -12
c-30 -6 -88 -14 -130 -18 l-76 -6 -12 88 c-7 49 -13 107 -14 129 l-2 40 55 8
c30 5 75 12 100 16 72 14 88 12 94 -7z m-5617 -94 c-3 -8 -6 -5 -6 6 -1 11 2
17 5 13 3 -3 4 -12 1 -19z m2709 -5 c-10 -10 -19 5 -10 18 6 11 8 11 12 0 2
-7 1 -15 -2 -18z m4691 -55 c-3 -8 -6 -5 -6 6 -1 11 2 17 5 13 3 -3 4 -12 1
-19z m-1014 -53 c4 -27 12 -75 17 -105 6 -30 6 -58 2 -62 -4 -4 -53 -14 -108
-22 -111 -16 -124 -11 -124 47 0 16 -5 58 -12 93 -6 35 -8 67 -4 71 9 10 152
32 191 30 28 -2 31 -5 38 -52z m-484 -128 c7 -59 12 -109 10 -111 -10 -11
-205 -33 -215 -25 -14 11 -38 209 -27 219 10 10 136 28 183 26 l35 -1 14 -108z
m-2999 -126 c7 -48 13 -105 14 -127 l1 -39 -60 -8 c-175 -23 -184 -24 -189
-10 -7 17 -29 178 -30 218 l-1 29 115 16 c63 9 120 15 126 13 6 -2 17 -44 24
-92z m-488 -101 c9 -68 15 -126 13 -128 -8 -8 -240 -39 -247 -33 -12 11 -40
243 -31 252 5 5 47 14 93 20 47 5 87 12 89 15 3 3 19 4 35 2 l30 -3 18 -125z
m765 -38 c6 -4 16 -44 22 -89 6 -45 13 -93 17 -107 5 -21 2 -26 -18 -30 -38
-9 -207 -36 -221 -36 -9 0 -18 27 -26 83 -7 45 -15 97 -18 115 -3 17 -4 32 -2
33 2 0 54 8 114 18 61 10 112 19 115 20 3 0 10 -3 17 -7z m-513 -84 c9 -41 26
-166 26 -191 0 -22 -6 -25 -82 -36 -46 -7 -96 -12 -113 -10 l-30 4 -14 103
c-8 61 -10 107 -5 112 5 5 49 14 99 20 49 6 91 13 94 16 10 10 21 2 25 -18z
m821 -155 c3 -21 10 -62 15 -92 6 -30 10 -71 10 -91 l0 -36 -117 -17 c-130
-18 -143 -14 -143 37 0 17 -7 69 -14 116 -8 47 -12 88 -9 93 2 4 23 8 46 8 23
1 56 5 72 9 17 4 53 8 82 9 l52 1 6 -37z m-525 -44 c0 -6 7 -60 16 -121 11
-73 13 -113 6 -120 -5 -5 -38 -13 -73 -18 -35 -4 -87 -11 -116 -15 -49 -7 -52
-6 -57 16 -9 38 -36 233 -33 235 5 5 191 32 225 33 17 1 32 -4 32 -10z m1440
-123 c0 -6 -7 -20 -16 -31 -12 -17 -16 -18 -24 -5 -5 8 -7 17 -6 20 2 3 6 13
9 22 7 19 37 14 37 -6z m-39 -79 c-10 -9 -11 -8 -5 6 3 10 9 15 12 12 3 -3 0
-11 -7 -18z"/>
<path d="M6811 9614 c0 -11 3 -14 6 -6 3 7 2 16 -1 19 -3 4 -6 -2 -5 -13z"/>
<path d="M4016 8018 c9 -31 12 -34 25 -21 15 15 4 43 -16 43 -12 0 -15 -6 -9
-22z"/>
<path d="M4082 7935 c12 -26 28 -34 28 -12 0 7 -9 18 -20 25 -18 11 -19 10 -8
-13z"/>
<path d="M6110 7940 c0 -5 7 -10 15 -10 8 0 15 5 15 10 0 6 -7 10 -15 10 -8 0
-15 -4 -15 -10z"/>
<path d="M3882 7818 c6 -18 28 -21 28 -4 0 9 -7 16 -16 16 -9 0 -14 -5 -12
-12z"/>
<path d="M4604 7815 c-7 -17 4 -37 17 -30 12 8 12 45 -1 45 -6 0 -13 -7 -16
-15z"/>
<path d="M5143 7823 c-15 -5 -18 -33 -4 -33 5 0 11 -10 13 -22 5 -34 23 -32
40 6 22 45 -1 69 -49 49z"/>
<path d="M5355 7820 c-3 -5 -1 -10 4 -10 6 0 11 5 11 10 0 6 -2 10 -4 10 -3 0
-8 -4 -11 -10z"/>
<path d="M5357 7783 c-14 -26 -16 -62 -2 -73 12 -10 20 -9 41 5 25 16 26 17 8
33 -11 10 -24 23 -31 30 -6 7 -13 10 -16 5z"/>
<path d="M4180 7770 c0 -5 5 -10 10 -10 6 0 10 5 10 10 0 6 -4 10 -10 10 -5 0
-10 -4 -10 -10z"/>
<path d="M4608 7759 c-10 -5 -18 -14 -18 -19 0 -8 129 -54 136 -47 2 1 -4 20
-14 40 -15 32 -22 36 -52 36 -19 0 -43 -4 -52 -10z"/>
<path d="M4995 7741 c-3 -5 4 -13 16 -16 23 -8 34 -1 24 14 -8 13 -32 14 -40
2z"/>
<path d="M4505 7731 c-10 -17 12 -21 25 -6 10 12 10 15 -3 15 -9 0 -18 -4 -22
-9z"/>
<path d="M4843 7713 c-17 -6 -16 -28 0 -42 11 -8 18 -6 31 8 17 18 17 20 -1
29 -10 5 -24 7 -30 5z"/>
<path d="M5050 7696 c0 -9 7 -16 15 -16 9 0 25 -16 36 -35 12 -19 27 -35 34
-35 8 0 20 -8 27 -17 7 -10 32 -33 56 -51 39 -31 42 -32 42 -11 0 15 -5 19
-15 15 -11 -4 -15 2 -15 25 0 24 -11 42 -52 80 -28 27 -59 49 -67 49 -9 0 -26
3 -38 6 -17 5 -23 2 -23 -10z"/>
<path d="M4690 7664 c0 -9 5 -14 12 -12 18 6 21 28 4 28 -9 0 -16 -7 -16 -16z"/>
<path d="M5328 7660 c-7 -11 -18 -20 -24 -20 -7 0 -14 -6 -17 -13 -6 -17 42
-15 53 2 12 20 42 5 69 -34 23 -34 53 -45 66 -25 12 19 -7 56 -42 83 -43 32
-88 35 -105 7z"/>
<path d="M3740 7650 c0 -5 9 -10 19 -10 11 0 23 5 26 10 4 6 -5 10 -19 10 -14
0 -26 -4 -26 -10z"/>
<path d="M4346 7616 c3 -8 13 -17 22 -20 9 -4 28 -13 42 -21 29 -17 78 -19
100 -5 11 7 4 10 -26 10 -30 0 -48 7 -68 25 -29 27 -79 35 -70 11z"/>
<path d="M5510 7591 c-8 -16 -6 -21 11 -26 26 -8 42 6 33 28 -8 23 -31 21 -44
-2z"/>
<path d="M5620 7591 c0 -5 7 -11 14 -14 10 -4 13 -1 9 9 -6 15 -23 19 -23 5z"/>
<path d="M4630 7570 c0 -5 5 -10 10 -10 6 0 10 5 10 10 0 6 -4 10 -10 10 -5 0
-10 -4 -10 -10z"/>
<path d="M4688 7553 c-24 -6 -23 -12 9 -45 15 -15 37 -28 50 -28 20 0 23 3 17
28 -12 49 -27 58 -76 45z"/>
<path d="M5583 7535 c2 -5 10 -10 17 -10 7 0 15 5 17 10 2 6 -6 11 -17 11 -11
0 -19 -5 -17 -11z"/>
<path d="M4600 7500 c0 -11 5 -20 10 -20 6 0 10 9 10 20 0 11 -4 20 -10 20 -5
0 -10 -9 -10 -20z"/>
<path d="M4330 7495 c0 -8 6 -15 14 -15 7 0 26 -16 40 -35 33 -43 46 -44 46
-4 0 28 -3 31 -25 27 -14 -3 -25 -1 -25 5 0 10 -30 36 -42 37 -5 0 -8 -7 -8
-15z"/>
<path d="M4900 7490 c0 -5 7 -10 15 -10 8 0 15 5 15 10 0 6 -7 10 -15 10 -8 0
-15 -4 -15 -10z"/>
<path d="M5246 7474 c-9 -23 -8 -24 13 -24 28 0 35 17 12 29 -15 8 -20 7 -25
-5z"/>
<path d="M5073 7472 c-34 -5 -28 -17 19 -41 42 -21 75 -18 45 4 -10 7 -17 17
-17 23 0 13 -19 19 -47 14z"/>
<path d="M4161 7426 c-16 -19 0 -29 34 -20 24 6 36 24 16 24 -5 0 -16 2 -24 5
-7 3 -19 -1 -26 -9z"/>
<path d="M5760 7390 c0 -19 3 -21 12 -12 9 9 9 15 0 24 -9 9 -12 7 -12 -12z"/>
<path d="M4315 7366 c-24 -13 -38 -28 -36 -37 2 -8 6 -29 9 -46 2 -18 9 -33
14 -33 6 0 8 11 5 25 -5 30 22 50 59 42 31 -5 47 14 38 47 -8 33 -35 34 -89 2z"/>
<path d="M4567 7313 c-16 -15 -5 -53 22 -75 15 -13 36 -35 46 -50 18 -29 55
-37 84 -19 12 8 6 19 -29 58 -37 40 -102 93 -114 93 -1 0 -6 -3 -9 -7z"/>
<path d="M5843 7285 c-14 -10 -19 -22 -16 -40 9 -42 53 -24 53 21 0 30 -12 36
-37 19z"/>
<path d="M4330 7188 c-12 -16 -20 -18 -42 -9 -21 8 -31 6 -50 -8 -13 -10 -30
-20 -39 -23 -9 -4 -19 -20 -22 -36 -5 -23 -13 -31 -36 -35 -37 -8 -91 -54 -91
-78 0 -10 10 -23 21 -30 17 -9 20 -17 16 -43 -4 -23 1 -39 19 -61 13 -17 24
-38 24 -47 0 -25 34 -23 69 3 26 19 42 21 171 21 127 1 143 2 153 19 7 11 17
19 24 19 17 0 17 67 1 73 -7 2 -20 0 -30 -4 -12 -7 -15 -5 -13 9 2 9 4 20 4
23 3 19 44 15 71 -7 27 -23 33 -24 70 -14 47 13 45 25 -5 34 -20 4 -35 13 -35
21 0 7 -11 22 -25 33 l-25 20 22 14 c14 9 19 20 15 31 -9 24 -37 21 -37 -3 0
-20 -33 -29 -44 -11 -3 4 -25 14 -50 21 -36 10 -45 17 -53 43 -11 40 -60 54
-83 25z m-90 -158 c7 -12 27 -20 62 -25 29 -3 61 -9 71 -11 28 -8 20 -24 -13
-24 -16 0 -45 -9 -65 -20 -22 -12 -54 -20 -85 -20 -41 0 -54 5 -75 27 -23 26
-33 71 -19 86 4 3 31 6 60 6 42 -1 57 -5 64 -19z m250 -84 c0 -19 -30 -29 -46
-15 -22 18 -16 29 16 29 19 0 30 -5 30 -14z"/>
<path d="M4098 7133 c6 -2 18 -2 25 0 6 3 1 5 -13 5 -14 0 -19 -2 -12 -5z"/>
<path d="M5752 7123 c5 -25 28 -28 28 -4 0 12 -6 21 -16 21 -9 0 -14 -7 -12
-17z"/>
<path d="M5800 7051 c0 -17 5 -31 10 -31 6 0 10 11 10 24 0 14 -4 28 -10 31
-6 4 -10 -7 -10 -24z"/>
<path d="M3900 6870 c0 -5 11 -10 25 -10 14 0 25 5 25 10 0 6 -11 10 -25 10
-14 0 -25 -4 -25 -10z"/>
<path d="M3997 6764 c-5 -27 9 -38 40 -32 12 2 18 12 18 31 1 23 -3 27 -26 27
-21 0 -28 -6 -32 -26z"/>
<path d="M3926 6755 c-10 -8 -30 -12 -45 -9 -17 3 -34 -3 -50 -16 -35 -30 -21
-50 34 -50 41 0 45 2 45 25 0 20 5 25 24 25 29 0 41 14 23 28 -8 7 -18 6 -31
-3z"/>
<path d="M1320 5550 c0 -5 5 -10 11 -10 5 0 7 5 4 10 -3 6 -8 10 -11 10 -2 0
-4 -4 -4 -10z"/>
<path d="M5914 5526 c-9 -24 15 -58 39 -54 17 2 22 10 22 33 0 25 -4 30 -28
33 -17 2 -29 -2 -33 -12z"/>
<path d="M1544 5425 c-8 -20 4 -65 16 -65 6 0 10 8 10 18 0 9 3 27 6 40 5 16
2 22 -10 22 -9 0 -19 -7 -22 -15z"/>
<path d="M7860 5328 c-14 -5 -88 -16 -165 -24 -98 -11 -143 -19 -151 -30 -7
-8 -35 -17 -63 -21 -28 -3 -54 -10 -57 -14 -3 -5 -14 -9 -25 -9 -12 0 -44 -19
-72 -43 -62 -52 -105 -80 -132 -87 -11 -3 -33 -25 -48 -48 -16 -23 -34 -42
-42 -42 -25 0 -63 -59 -74 -112 -20 -105 -31 -232 -21 -242 14 -14 12 -36 -5
-70 -21 -39 -20 -40 25 -71 44 -30 51 -54 20 -62 -25 -7 -25 -16 -2 -50 11
-18 17 -47 17 -88 1 -67 21 -122 47 -131 35 -11 20 -33 -23 -32 -51 1 -61 -10
-57 -58 3 -36 6 -39 35 -42 25 -3 38 4 64 33 38 41 72 44 77 7 3 -18 -3 -26
-26 -34 -38 -14 -51 -67 -20 -76 22 -5 19 -26 -5 -30 -10 -2 -17 3 -17 12 0 9
-4 16 -9 16 -16 0 -23 -20 -13 -33 5 -7 9 -40 10 -75 0 -59 14 -98 32 -87 10
6 15 -1 24 -38 6 -26 5 -28 -21 -25 -22 2 -29 9 -31 31 -2 15 -8 27 -13 27 -5
0 -9 9 -9 19 0 19 -23 35 -34 24 -3 -4 -6 -15 -6 -26 0 -10 -11 -32 -25 -49
-14 -16 -25 -35 -25 -42 0 -23 -37 -48 -59 -41 -12 3 -21 10 -21 14 0 12 -40
51 -53 51 -21 0 -54 -94 -37 -105 5 -3 10 -14 10 -24 0 -10 10 -27 23 -39 27
-26 77 -30 77 -6 0 8 5 12 10 9 6 -3 10 3 10 15 0 16 5 21 23 18 37 -5 29 -41
-13 -55 -21 -7 -33 -17 -31 -25 2 -7 6 -31 9 -53 2 -22 11 -47 18 -56 13 -14
12 -18 -10 -33 -14 -9 -40 -16 -58 -16 -18 0 -42 -7 -53 -16 -12 -9 -30 -12
-46 -9 -22 5 -29 2 -34 -14 -4 -15 -15 -21 -35 -21 -16 0 -33 -7 -38 -16 -8
-15 -15 -14 -66 11 -45 22 -70 28 -117 26 -32 -1 -59 2 -59 7 0 5 -24 12 -52
14 -29 2 -66 12 -83 21 -16 9 -38 19 -47 23 -10 4 -18 17 -18 30 0 29 -20 31
-43 4 -36 -42 -124 -15 -115 35 4 19 1 25 -12 25 -10 0 -23 -7 -30 -15 -10
-12 -24 -14 -59 -9 -25 4 -55 10 -66 14 -13 5 -35 1 -59 -11 -38 -18 -38 -18
-33 2 3 10 -1 26 -9 33 -18 19 -18 30 1 46 22 18 11 24 -14 8 -32 -20 -49 2
-33 45 18 50 16 60 -9 45 -17 -10 -23 -10 -26 0 -6 14 -49 16 -58 2 -3 -5 -15
-10 -26 -10 -11 0 -31 -11 -45 -25 -14 -14 -29 -25 -34 -25 -6 0 -10 -7 -10
-15 0 -8 -8 -19 -19 -24 -10 -6 -21 -18 -25 -27 -5 -14 0 -15 41 -9 27 4 51
12 54 17 10 16 29 -1 29 -26 0 -16 -9 -25 -33 -34 -27 -10 -35 -20 -47 -59 -7
-27 -20 -53 -27 -58 -10 -7 -13 -27 -11 -60 3 -48 4 -50 40 -60 20 -5 39 -13
43 -17 11 -10 -7 -35 -45 -63 l-34 -25 47 0 c36 0 52 -5 72 -26 15 -14 24 -32
21 -40 -7 -18 28 -27 85 -22 43 3 43 3 52 -37 5 -22 10 -51 10 -64 2 -18 11
-27 40 -37 21 -8 50 -15 65 -17 36 -5 44 -35 20 -75 -16 -26 -18 -36 -9 -45 9
-9 16 -6 30 12 18 23 22 24 92 17 52 -5 79 -12 94 -26 21 -20 21 -20 58 0 54
29 68 26 65 -12 -3 -32 -2 -33 47 -42 28 -6 52 -13 55 -17 10 -15 65 -31 102
-31 21 1 40 -3 43 -9 12 -18 35 -9 41 16 7 29 71 65 116 65 21 0 29 6 34 25 4
16 13 25 25 25 15 0 19 -7 18 -32 0 -18 -4 -42 -8 -53 -5 -11 -3 -24 3 -31 17
-17 45 -13 52 8 7 23 24 24 24 1 0 -10 7 -27 15 -37 15 -20 15 -20 42 0 15 12
30 34 34 51 15 75 39 70 39 -8 0 -52 2 -60 18 -57 11 2 20 18 26 46 7 30 14
41 24 37 23 -9 50 13 57 46 4 19 15 33 26 36 10 3 19 11 19 19 0 7 4 15 9 19
6 3 8 -9 4 -30 -5 -30 -2 -36 19 -44 13 -5 30 -16 37 -25 7 -9 20 -16 29 -16
27 0 81 -43 87 -70 8 -31 25 -42 42 -28 10 8 21 8 39 0 20 -10 26 -9 30 3 4 8
13 15 22 15 8 0 24 8 34 17 24 22 98 19 115 -4 11 -15 16 -15 52 2 43 19 71
15 71 -10 0 -11 12 -15 51 -15 38 0 66 8 116 35 36 19 71 35 78 35 6 0 26 18
43 39 18 22 47 44 67 51 30 10 35 16 35 41 0 39 16 69 38 69 9 1 26 8 37 18
40 34 55 65 55 118 0 48 3 54 37 80 20 15 55 31 76 34 34 4 41 10 51 40 6 21
21 40 37 47 19 10 28 23 33 51 3 21 15 47 26 57 11 10 20 24 20 31 0 7 4 14
10 16 14 4 32 108 24 141 -3 16 -3 49 1 73 6 42 8 44 56 61 42 15 54 25 70 57
10 22 19 46 19 53 0 15 -26 18 -35 3 -9 -15 -25 -2 -25 21 0 14 7 19 25 19 26
0 43 27 66 108 12 42 12 43 -21 71 -30 25 -33 31 -27 66 6 35 14 46 42 59 11
5 -44 56 -61 56 -6 0 -23 19 -38 42 -24 37 -27 50 -24 97 4 42 0 64 -16 93
-17 33 -18 40 -6 48 10 6 16 33 18 84 4 64 1 79 -17 105 -17 23 -21 44 -21
103 1 48 6 80 15 92 20 27 18 83 -5 131 -11 22 -19 47 -20 56 0 9 -7 22 -15
29 -8 7 -15 18 -15 25 0 14 -84 95 -98 95 -5 0 -19 9 -32 20 -13 11 -29 20
-35 20 -7 0 -15 6 -18 14 -3 8 -21 17 -39 21 -18 4 -40 13 -48 19 -56 46 -342
90 -410 64z m630 -698 c0 -5 -4 -10 -10 -10 -5 0 -10 5 -10 10 0 6 5 10 10 10
6 0 10 -4 10 -10z m-1242 -659 c3 -8 -1 -12 -9 -9 -7 2 -15 10 -17 17 -3 8 1
12 9 9 7 -2 15 -10 17 -17z"/>
<path d="M1467 4608 c-6 -4 -9 -8 -7 -10 16 -11 68 -23 88 -20 l23 3 -24 19
c-24 19 -57 22 -80 8z"/>
<path d="M1568 4487 c-16 -6 -28 -15 -28 -20 0 -4 -4 -6 -9 -2 -6 3 -15 -4
-22 -16 -13 -25 1 -39 39 -39 12 0 22 -4 22 -10 0 -5 -10 -12 -22 -14 -74 -15
-78 -17 -78 -36 0 -10 5 -22 10 -25 6 -3 10 -15 10 -26 0 -26 29 -69 45 -69
39 0 1 -74 -47 -93 -21 -7 -23 -28 -6 -45 9 -9 7 -17 -11 -36 -20 -21 -21 -26
-9 -45 11 -18 11 -23 -2 -31 -8 -5 -23 -10 -32 -10 -12 0 -18 -8 -18 -21 0
-11 -9 -28 -19 -37 -11 -10 -22 -27 -26 -39 -6 -20 -3 -23 22 -23 16 0 34 -5
40 -11 6 -6 22 -17 35 -23 12 -6 24 -21 26 -33 2 -11 12 -29 23 -39 10 -9 19
-23 19 -31 0 -7 7 -16 15 -19 22 -9 8 -24 -24 -24 -30 0 -71 -32 -71 -56 0
-16 29 -29 79 -37 18 -3 40 -15 48 -27 14 -19 16 -20 27 -5 11 15 13 16 25 1
17 -20 7 -31 -27 -31 -35 0 -42 -30 -10 -41 47 -15 66 -11 63 13 -3 26 16 31
35 8 9 -11 7 -19 -9 -37 -12 -12 -20 -27 -18 -33 4 -12 -61 -54 -85 -55 -11 0
-15 -5 -12 -15 5 -11 15 -14 38 -10 17 4 38 7 47 8 9 2 24 10 33 19 26 26 144
20 174 -10 17 -17 32 -21 67 -20 48 2 56 10 48 51 -5 24 -10 26 -57 29 -50 3
-52 4 -73 48 -12 25 -22 47 -22 50 0 3 17 16 39 30 22 13 40 30 40 38 0 10 7
12 26 8 19 -5 24 -4 18 6 -5 10 -4 11 7 1 7 -7 28 -13 47 -13 30 0 32 2 18 15
-8 9 -19 15 -23 13 -24 -5 -85 17 -94 35 -9 16 -13 17 -20 6 -6 -10 -9 -11 -9
-1 0 6 -5 12 -11 12 -16 0 -59 48 -59 66 0 8 8 18 18 22 13 5 11 8 -12 12 -39
7 -35 25 7 26 22 1 40 -7 57 -23 28 -28 67 -26 109 5 36 26 30 36 -25 45 -62
10 -105 47 -84 72 7 8 21 15 31 15 10 0 21 5 24 10 6 9 -17 14 -67 14 -18 0
-21 36 -5 47 11 8 -1 69 -14 69 -5 0 -9 14 -9 31 0 24 3 30 16 25 10 -4 14 -2
11 6 -2 7 -10 12 -17 10 -7 -2 -16 1 -19 5 -12 17 -67 50 -94 57 -20 5 -27 12
-25 24 3 13 16 18 66 20 34 2 62 7 62 11 0 13 -49 31 -67 24 -10 -4 -14 -2
-10 4 4 6 -5 21 -19 32 -37 29 -44 95 -15 120 12 10 21 21 21 25 0 12 -39 6
-54 -9 -22 -23 -28 -18 -21 19 5 22 3 36 -6 41 -8 6 -10 4 -4 -5 6 -10 4 -11
-6 -4 -21 13 -51 13 -81 1z m181 -401 c16 -19 -17 -30 -61 -21 -30 7 -31 8
-13 21 24 18 59 18 74 0z m21 -206 c0 -5 -6 -10 -14 -10 -8 0 -16 -5 -18 -11
-5 -14 -38 0 -38 17 0 9 12 14 35 14 19 0 35 -4 35 -10z"/>
<path d="M6306 4361 c-9 -14 5 -42 18 -38 15 5 14 39 -1 44 -6 2 -14 0 -17 -6z"/>
<path d="M6656 4335 c-16 -12 -17 -18 -6 -44 19 -47 35 -56 65 -37 35 23 34
67 -2 84 -33 15 -34 15 -57 -3z"/>
<path d="M6852 4270 c-12 -10 -22 -28 -22 -39 0 -24 43 -56 65 -47 25 9 34 48
18 73 -20 30 -35 33 -61 13z"/>
<path d="M1377 4203 c-25 -6 -11 -23 19 -23 15 0 24 5 22 12 -5 14 -17 17 -41
11z"/>
<path d="M6532 4008 c-11 -15 0 -52 19 -63 14 -9 48 32 49 58 0 20 -52 24 -68
5z"/>
<path d="M6715 3928 c2 -46 4 -87 5 -91 0 -5 7 -1 16 7 8 9 28 16 43 16 16 0
37 10 51 25 22 23 22 25 6 58 -19 42 -55 67 -95 67 l-30 0 4 -82z"/>
<path d="M6917 3949 c-26 -15 -14 -73 21 -109 23 -22 33 -25 60 -19 50 10 74
36 70 78 -3 32 -7 36 -38 42 -19 4 -48 10 -65 13 -16 3 -38 1 -48 -5z"/>
<path d="M1055 3877 c-4 -10 -5 -21 -1 -24 3 -4 -1 -14 -10 -24 -10 -11 -14
-27 -11 -40 3 -12 -1 -32 -9 -44 -14 -22 -13 -23 18 -35 18 -7 39 -12 47 -11
8 2 5 -7 -8 -21 -28 -30 -23 -52 14 -58 19 -3 31 -12 33 -25 6 -30 21 -43 42
-38 20 5 29 -12 10 -19 -5 -1 18 -4 52 -5 70 -2 85 -11 68 -42 -9 -17 -8 -22
5 -27 17 -7 21 -34 5 -34 -6 0 -9 6 -8 13 2 7 -10 12 -32 13 -58 1 -98 14 -96
32 1 14 -10 17 -56 18 -32 1 -58 -2 -58 -7 0 -5 -4 -9 -9 -9 -4 0 -6 11 -4 24
4 18 -1 25 -19 29 -38 11 -49 8 -46 -10 2 -12 -4 -19 -19 -21 -49 -7 -28 -48
35 -67 21 -6 27 2 23 28 -2 11 27 8 34 -4 4 -6 22 -8 45 -4 32 5 38 3 43 -14
4 -18 13 -21 64 -21 47 0 61 -4 71 -20 8 -14 23 -20 46 -20 44 0 53 14 24 35
l-23 16 25 19 c14 10 23 20 20 22 -3 2 -18 12 -33 22 l-29 18 23 24 c12 13 32
24 44 24 12 0 30 7 41 15 24 18 10 30 -47 39 -25 4 -39 12 -39 21 0 10 -10 15
-27 15 -51 0 -74 11 -72 34 3 33 -18 75 -45 88 -14 6 -37 28 -51 49 -15 23
-33 39 -44 39 -11 0 -21 6 -24 13 -3 8 -7 6 -12 -6z"/>
<path d="M6448 3727 c-13 -14 -32 -37 -43 -52 -11 -15 -28 -35 -37 -43 -19
-17 -24 -47 -10 -56 5 -3 19 6 30 19 12 14 28 25 37 25 8 0 30 14 50 31 29 26
35 38 33 63 -4 40 -30 45 -60 13z"/>
<path d="M6666 3702 c-10 -17 -9 -77 3 -105 10 -26 8 -31 -18 -56 -25 -23 -28
-32 -22 -61 8 -40 27 -50 36 -18 4 13 17 31 29 40 17 14 19 19 9 29 -23 23
-15 49 15 55 33 7 42 46 14 66 -9 7 -22 22 -28 33 -12 22 -30 30 -38 17z"/>
<path d="M5540 3636 c-16 -21 -6 -46 20 -46 13 0 20 7 20 20 0 11 0 23 1 28 1
14 -28 13 -41 -2z"/>
<path d="M990 3616 c0 -8 -6 -17 -12 -20 -7 -3 -4 -5 7 -3 20 2 35 37 16 37
-6 0 -11 -6 -11 -14z"/>
<path d="M5960 3544 c0 -14 4 -23 10 -19 6 3 10 15 10 26 0 10 -4 19 -10 19
-5 0 -10 -12 -10 -26z"/>
<path d="M6316 3531 c-4 -7 -5 -15 -2 -18 9 -9 19 4 14 18 -4 11 -6 11 -12 0z"/>
<path d="M6780 3490 c0 -11 7 -20 15 -20 8 0 15 9 15 20 0 11 -7 20 -15 20 -8
0 -15 -9 -15 -20z"/>
<path d="M6272 3479 c2 -6 8 -10 13 -10 5 0 11 4 13 10 2 6 -4 11 -13 11 -9 0
-15 -5 -13 -11z"/>
<path d="M6867 3463 c-11 -10 -8 -41 3 -48 19 -12 41 15 29 36 -10 20 -21 24
-32 12z"/>
<path d="M1417 3359 c-18 -21 -28 -21 -177 -9 -8 1 -31 -1 -50 -5 -39 -8 -86
-7 -112 1 -13 4 -16 1 -12 -10 4 -10 18 -16 38 -16 18 0 36 -4 41 -9 6 -5 26
-11 45 -12 46 -4 53 -8 39 -25 -6 -8 -29 -14 -51 -14 -25 0 -37 -4 -33 -11 4
-6 10 -8 13 -5 3 3 21 -6 39 -20 19 -14 40 -27 46 -29 48 -12 54 -17 49 -42
-3 -14 -13 -28 -23 -30 -11 -3 -18 -13 -16 -26 3 -29 -33 -36 -134 -27 -93 9
-133 4 -150 -16 -6 -8 -16 -14 -21 -14 -15 0 -38 -27 -38 -45 0 -14 6 -16 28
-11 80 19 101 10 61 -28 -21 -20 -27 -21 -49 -9 -22 11 -27 11 -37 -5 -34 -49
-59 -72 -79 -72 -13 0 -26 -5 -29 -10 -4 -6 -14 -9 -23 -8 -10 2 -17 -4 -17
-12 0 -9 9 -15 25 -15 27 0 62 -39 54 -60 -3 -8 9 -15 33 -18 27 -5 41 -14 49
-31 10 -21 8 -25 -13 -35 -13 -6 -41 -11 -63 -11 -21 0 -42 -5 -45 -11 -4 -6
-14 -8 -24 -5 -9 4 -5 -3 9 -14 14 -11 28 -20 31 -20 7 0 -14 -86 -24 -96 -4
-4 -7 3 -7 16 0 23 -1 23 -17 7 -16 -15 -16 -19 -3 -27 28 -17 -2 -31 -43 -19
-20 5 -42 7 -47 4 -6 -3 -10 1 -10 9 0 10 -9 16 -26 16 -14 0 -23 -4 -19 -9 3
-5 -5 -17 -17 -26 -19 -12 -20 -17 -9 -24 20 -13 6 -41 -20 -41 -15 0 -19 -4
-15 -16 3 -8 1 -24 -5 -35 -8 -16 -6 -26 8 -47 10 -15 22 -36 28 -46 5 -11 21
-20 34 -21 13 -1 32 -13 42 -26 17 -22 19 -23 19 -4 0 16 2 17 10 5 6 -10 9
-3 7 27 -1 25 5 49 14 60 8 10 14 27 14 38 -1 13 4 21 14 21 9 0 27 4 41 8 19
5 21 5 10 -3 -13 -9 -12 -12 5 -25 24 -18 26 -19 45 -5 13 9 12 10 -2 5 -11
-3 -15 -1 -12 8 3 8 0 17 -6 21 -18 11 8 25 48 25 37 0 42 -19 10 -39 l-22
-14 23 -18 c12 -10 20 -23 17 -28 -4 -5 1 -14 11 -20 16 -8 15 -11 -7 -29
l-25 -20 26 -10 c17 -7 29 -21 33 -39 4 -15 19 -40 33 -55 32 -34 26 -78 -11
-78 -14 0 -30 -10 -40 -24 -15 -24 -15 -25 11 -23 14 1 28 -4 30 -10 3 -7 -2
-13 -11 -13 -9 0 -16 5 -16 10 0 7 -6 7 -17 2 -10 -5 -24 -7 -30 -5 -17 6 -16
4 6 -43 29 -60 40 -66 96 -54 57 13 77 2 57 -30 -6 -11 -12 -24 -12 -30 0 -13
57 -13 65 0 5 7 11 8 18 1 7 -5 40 -13 74 -16 41 -5 68 -14 79 -26 9 -10 32
-23 50 -29 19 -7 32 -15 29 -20 -8 -13 32 -46 91 -75 54 -26 64 -38 43 -50 -5
-4 -8 -12 -6 -18 2 -7 -3 -17 -11 -23 -13 -10 -11 -14 14 -30 16 -10 34 -24
39 -31 6 -7 22 -17 38 -22 17 -7 27 -18 27 -30 0 -23 46 -81 65 -81 7 0 25
-13 38 -30 14 -16 29 -30 34 -30 5 0 25 -9 46 -20 20 -11 39 -20 42 -20 55 0
65 -1 61 -9 -3 -5 23 -10 57 -13 43 -2 72 -10 93 -25 33 -23 105 -30 181 -18
34 6 47 15 68 46 14 22 30 39 36 39 6 0 8 9 4 19 -7 22 33 57 48 42 11 -11 -1
-53 -14 -46 -5 4 -9 2 -9 -3 0 -19 14 -21 32 -6 14 13 31 16 85 11 70 -5 103
3 103 28 0 8 -9 19 -20 25 -22 12 -26 40 -9 57 16 16 -43 49 -119 66 -35 8
-66 18 -70 22 -4 4 9 21 29 38 19 18 38 40 42 50 3 9 11 17 16 17 6 0 -3 20
-19 44 -29 43 -32 44 -74 40 -49 -5 -65 6 -40 27 13 11 17 10 25 -4 8 -13 14
-14 34 -5 31 14 31 24 3 39 -13 7 -23 11 -23 9 0 -2 -26 0 -57 4 -32 4 -58 11
-58 15 0 4 -11 14 -25 21 -14 7 -25 17 -25 22 0 13 43 9 65 -5 26 -18 92 -21
127 -6 31 13 34 19 17 36 -23 23 41 61 111 65 36 2 44 6 42 20 -6 36 14 54 55
50 21 -2 35 -1 32 2 -11 11 -72 16 -83 7 -15 -11 -66 -20 -71 -12 -2 4 -29 20
-60 36 -31 15 -59 34 -62 41 -7 18 15 54 30 48 7 -2 17 6 22 18 6 13 28 29 50
37 51 18 48 16 49 48 1 22 8 30 33 38 18 6 45 21 60 32 24 19 26 24 13 32 -8
6 -35 13 -60 17 -25 4 -50 10 -55 15 -6 4 -30 10 -54 13 -25 2 -53 14 -66 26
-22 21 -26 21 -53 7 -22 -10 -33 -12 -41 -4 -8 8 -11 8 -11 -1 0 -18 -44 -14
-71 7 -13 10 -33 20 -44 22 -17 4 -16 6 9 22 23 16 32 17 56 7 15 -6 41 -10
56 -8 23 2 30 9 32 30 2 14 9 29 16 31 18 7 56 -20 56 -39 0 -13 41 -21 80
-15 8 2 26 4 38 5 22 2 41 21 42 39 0 4 -14 21 -30 37 -25 25 -39 30 -79 30
-42 0 -49 -3 -60 -26 -9 -21 -14 -24 -26 -14 -11 9 -15 9 -15 1 0 -7 -9 -9
-23 -6 -24 6 -57 13 -69 14 -13 1 -9 21 5 26 6 2 31 9 55 15 36 9 42 14 42 38
0 19 -3 23 -9 13 -6 -10 -10 -10 -16 -1 -11 19 3 24 31 12 14 -7 23 -8 19 -3
-3 5 -1 12 5 16 5 3 10 10 10 15 0 14 -70 41 -83 33 -6 -3 -33 -7 -60 -9 -27
-1 -53 -8 -57 -14 -4 -6 -17 -9 -31 -5 -13 3 -49 0 -79 -8 -33 -9 -79 -12
-114 -9 -56 5 -58 4 -51 -17 10 -31 -18 -60 -51 -53 -17 3 -33 -3 -49 -18 -21
-19 -30 -21 -75 -15 -51 7 -52 8 -46 35 3 18 1 30 -7 33 -9 3 -9 9 1 23 7 11
15 27 18 37 4 9 15 17 26 17 10 0 29 9 40 20 17 15 24 17 31 8 7 -10 10 -10
14 0 2 7 11 19 19 27 8 8 15 18 16 22 3 28 11 30 46 13 69 -34 144 -14 110 28
-11 13 -10 15 5 9 9 -3 17 -2 17 3 0 6 23 9 53 6 28 -2 71 2 94 7 38 10 45 9
63 -11 23 -25 26 -47 6 -39 -8 3 -20 -1 -26 -9 -7 -8 -19 -14 -27 -14 -8 0
-13 -7 -11 -17 2 -12 16 -17 56 -18 60 -2 70 6 51 42 -11 20 -11 26 1 33 8 6
25 10 38 10 17 0 22 5 20 18 -2 11 -13 17 -32 17 -18 -1 -38 9 -56 27 -20 19
-39 28 -62 28 -18 0 -45 6 -59 14 -14 7 -50 13 -79 12 -49 -2 -54 -4 -70 -34
-16 -29 -19 -31 -33 -17 -9 9 -33 15 -61 15 -35 0 -51 6 -70 25 -19 19 -36 25
-67 25 -50 0 -44 12 8 17 20 1 40 7 43 14 5 7 23 8 52 4 34 -5 49 -3 61 9 21
21 81 20 103 -1 21 -21 80 -25 95 -7 8 10 5 16 -14 25 -14 6 -30 22 -35 34 -6
14 -23 26 -41 30 -17 4 -33 11 -36 16 -4 5 -21 9 -40 9 -42 0 -50 20 -19 49
22 21 27 22 75 12 46 -10 53 -9 65 6 7 10 14 21 14 25 0 4 9 16 21 27 l21 19
-24 15 c-25 17 -87 35 -76 22 4 -4 3 -16 -3 -26 -14 -26 -65 -25 -79 1 -18 33
-37 25 -32 -15 5 -42 -14 -54 -50 -32 -13 8 -39 18 -59 21 -19 3 -45 15 -56
26 -18 16 -24 17 -39 6 -10 -8 -25 -10 -34 -6 -105 51 -115 58 -113 83 1 19
-2 24 -17 20 -10 -3 -21 0 -24 6 -12 19 -70 13 -89 -10z m206 -176 c48 -6 74
-41 57 -74 l-12 -21 -12 23 c-10 20 -18 23 -61 23 -39 -1 -51 -5 -53 -19 -3
-13 3 -16 30 -14 49 3 68 0 68 -11 0 -5 -21 -10 -47 -10 -39 0 -52 5 -68 25
-11 14 -25 31 -32 38 -9 9 -3 16 25 28 43 18 54 20 105 12z m-536 -179 c-3 -3
-12 -4 -19 -1 -8 3 -5 6 6 6 11 1 17 -2 13 -5z m1024 -464 c5 0 9 -4 9 -10 0
-5 -16 -10 -36 -10 -32 0 -35 2 -24 15 7 9 20 13 27 10 8 -3 19 -5 24 -5z
m-225 -13 c4 -4 -2 -7 -14 -7 -11 0 -23 4 -26 8 -6 10 30 9 40 -1z m74 -37 c6
0 10 -7 10 -15 0 -12 -7 -14 -27 -9 -43 10 -54 22 -40 44 11 19 12 19 30 0 10
-11 22 -20 27 -20z m-7 -53 c5 4 27 -38 27 -51 0 -2 -19 -3 -42 -3 -45 -1 -78
11 -78 27 0 17 54 39 71 29 9 -4 19 -6 22 -2z m-1213 -27 c0 -5 -10 -10 -22
-10 -19 0 -20 2 -8 10 19 13 30 13 30 0z m1315 -29 c6 -16 -11 -31 -37 -31
-23 0 -32 17 -16 34 16 18 46 16 53 -3z m388 -66 c3 -16 0 -24 -7 -22 -14 4
-21 47 -8 47 5 0 12 -11 15 -25z m-1457 -43 c-4 -3 -14 2 -24 12 -16 18 -16
18 6 6 13 -6 21 -14 18 -18z m1154 -39 c25 -12 59 -34 75 -48 28 -24 29 -25 5
-17 -14 5 -47 10 -75 11 -27 2 -58 7 -67 12 -30 16 -69 60 -62 70 8 14 71 0
124 -28z m-1064 -131 c16 -16 38 -34 49 -40 19 -11 19 -11 -4 -12 -38 0 -99
22 -106 38 -5 14 11 42 24 42 4 0 20 -13 37 -28z m1184 -83 c0 -17 -5 -20 -37
-17 -45 4 -58 33 -21 47 30 11 58 -3 58 -30z m82 13 c3 -10 -1 -27 -8 -37 -8
-10 -14 -14 -14 -7 0 6 -6 9 -14 6 -20 -8 -29 12 -16 36 13 25 46 26 52 2z
m-1190 -93 c17 -9 18 -13 7 -20 -21 -13 -59 -11 -59 4 0 28 19 34 52 16z
m1084 -604 c11 -8 14 -15 7 -15 -7 0 -12 -6 -10 -12 1 -7 -10 -14 -25 -16 -24
-3 -27 0 -26 27 1 35 21 41 54 16z"/>
<path d="M920 3146 c0 -13 7 -27 16 -30 23 -9 37 3 23 20 -8 10 -8 14 0 14 6
0 11 5 11 10 0 6 -11 10 -25 10 -20 0 -25 -5 -25 -24z"/>
<path d="M1158 3123 c7 -3 16 -2 19 1 4 3 -2 6 -13 5 -11 0 -14 -3 -6 -6z"/>
<path d="M2132 2725 c10 -10 49 -14 43 -4 -4 5 -16 9 -27 9 -12 0 -19 -2 -16
-5z"/>
<path d="M6637 2664 c-10 -10 -9 -54 1 -54 22 0 62 27 60 40 -3 16 -49 26 -61
14z"/>
<path d="M2980 2370 c0 -5 5 -10 10 -10 6 0 10 5 10 10 0 6 -4 10 -10 10 -5 0
-10 -4 -10 -10z"/>
<path d="M723 2232 c-6 -15 -10 -38 -9 -52 2 -23 6 -24 57 -21 54 3 96 21 48
21 -17 0 -34 12 -55 39 l-30 39 -11 -26z"/>
<path d="M671 2184 c0 -11 3 -14 6 -6 3 7 2 16 -1 19 -3 4 -6 -2 -5 -13z"/>
<path d="M614 2164 c9 -8 16 -21 16 -29 0 -7 7 -15 15 -19 11 -4 15 2 15 25 0
18 -4 28 -10 24 -5 -3 -10 -1 -10 4 0 6 -9 11 -21 11 -19 0 -19 -1 -5 -16z"/>
<path d="M2570 2140 c0 -18 40 -30 82 -24 68 9 77 17 28 25 -64 11 -110 11
-110 -1z"/>
<path d="M700 2095 c0 -8 7 -15 15 -15 8 0 15 7 15 15 0 8 -7 15 -15 15 -8 0
-15 -7 -15 -15z"/>
<path d="M789 2093 c-1 -4 -1 -11 0 -15 0 -5 -3 -8 -9 -8 -17 0 -11 -27 7 -34
22 -9 35 6 31 35 -3 21 -27 40 -29 22z"/>
<path d="M697 1993 c-4 -3 -7 -17 -7 -29 0 -18 11 -29 41 -43 39 -19 42 -19
65 -3 22 16 28 35 10 32 -5 -1 -12 2 -15 7 -10 14 -59 43 -74 43 -8 0 -17 -3
-20 -7z"/>
<path d="M2545 1901 c-3 -12 -18 -24 -33 -27 -45 -10 -52 -13 -52 -24 0 -11
55 -13 112 -4 l36 6 -17 31 c-21 38 -37 44 -46 18z"/>
<path d="M982 1691 c-11 -7 -10 -10 3 -15 19 -7 35 0 35 15 0 11 -20 12 -38 0z"/>
<path d="M4786 1329 c-10 -17 -15 -33 -11 -37 8 -9 45 35 45 54 0 23 -15 16
-34 -17z"/>
<path d="M2330 1290 c0 -5 5 -10 11 -10 5 0 7 5 4 10 -3 6 -8 10 -11 10 -2 0
-4 -4 -4 -10z"/>
<path d="M4655 1195 c-23 -19 -27 -26 -16 -34 15 -10 53 -3 63 13 12 18 9 46
-4 46 -7 0 -26 -11 -43 -25z"/>
<path d="M4762 1131 c-23 -21 -42 -42 -42 -45 0 -36 58 -116 84 -116 17 0 18
-5 20 -55 1 -27 4 -30 39 -33 32 -3 39 0 44 17 3 11 13 23 22 26 25 7 43 94
25 119 -7 11 -11 30 -8 43 9 35 5 33 -67 -32 -28 -26 -42 -18 -36 20 7 40 -9
95 -26 95 -7 0 -31 -17 -55 -39z"/>
<path d="M2294 1092 c5 -16 2 -18 -21 -15 -41 6 -136 -10 -140 -23 -2 -6 12
-30 31 -53 19 -22 36 -45 38 -51 8 -24 123 -53 219 -55 82 -2 100 -5 126 -25
23 -16 39 -21 58 -16 20 5 24 10 16 20 -9 11 -18 40 -20 69 -1 5 -14 6 -29 2
-19 -4 -34 0 -47 12 -17 16 -69 40 -100 47 -28 6 -55 29 -55 47 0 13 -10 24
-30 30 -16 6 -30 15 -30 20 0 5 -5 9 -11 9 -6 0 -8 -8 -5 -18z m31 -42 c3 -5
1 -10 -4 -10 -6 0 -11 5 -11 10 0 6 2 10 4 10 3 0 8 -4 11 -10z"/>
<path d="M5381 1054 c-17 -14 -31 -30 -31 -35 0 -5 -9 -18 -20 -29 -11 -11
-20 -27 -20 -35 0 -8 -4 -15 -8 -15 -8 0 -32 -43 -32 -55 0 -3 9 -5 20 -5 11
0 29 -9 41 -21 16 -16 28 -19 54 -15 36 7 59 -11 49 -37 -4 -11 -17 -16 -42
-14 -28 2 -37 -2 -40 -16 -7 -34 7 -67 28 -67 11 0 20 4 20 9 0 5 9 11 20 14
12 3 20 14 20 27 0 18 4 21 23 16 12 -3 30 -6 40 -6 10 0 17 -8 17 -20 0 -12
9 -30 19 -41 18 -19 21 -20 44 -5 23 15 27 15 56 -1 17 -10 29 -23 27 -30 -3
-7 3 -22 13 -35 16 -19 21 -20 35 -9 12 10 23 11 45 3 26 -9 31 -8 36 9 4 11
9 18 12 15 11 -10 -21 -62 -46 -74 -14 -7 -49 -12 -79 -12 -46 0 -55 -3 -59
-21 -4 -16 -8 -17 -14 -7 -6 9 -9 3 -9 -18 0 -38 15 -44 107 -44 40 0 63 -4
66 -12 4 -10 8 -9 16 2 9 13 11 12 11 -4 0 -15 3 -17 12 -8 9 9 14 8 22 -4 9
-12 17 -13 39 -5 16 6 26 15 23 20 -3 5 1 11 9 15 8 3 15 13 15 23 0 11 3 14
8 7 4 -5 23 -16 42 -24 19 -7 44 -22 56 -32 11 -10 28 -18 38 -18 27 0 57 20
50 32 -4 7 -2 8 5 4 6 -4 17 -3 24 2 20 16 87 10 84 -7 -1 -9 7 -17 17 -19 14
-3 17 0 13 13 -4 9 -3 14 2 11 5 -3 43 12 85 34 65 34 88 41 154 45 63 3 79 8
91 25 17 25 22 25 51 0 13 -11 30 -18 39 -16 51 15 99 16 110 2 9 -11 26 -14
55 -11 26 3 50 -1 61 -9 17 -12 53 -7 194 31 11 3 10 7 -5 18 -18 14 -18 14 2
15 12 0 31 9 44 20 17 14 27 17 36 9 8 -7 14 -7 19 1 4 6 17 10 28 9 62 -4 67
-1 67 41 l0 40 40 0 c29 0 40 4 40 15 0 17 11 19 28 5 6 -6 10 -7 7 -3 -3 3 6
14 20 23 l26 17 -28 27 c-22 23 -25 29 -13 37 12 7 10 9 -8 9 -15 0 -26 -8
-32 -25 -9 -24 -32 -36 -28 -14 2 6 -3 14 -9 16 -7 3 -13 0 -13 -6 0 -20 -79
-13 -102 9 -26 24 -47 25 -74 6 -16 -13 -22 -13 -40 -1 -18 12 -25 11 -45 -3
-30 -21 -56 -22 -98 -5 -28 12 -35 12 -42 1 -5 -7 -9 -16 -9 -20 0 -3 -13 -20
-30 -36 -16 -17 -30 -37 -30 -46 0 -8 -8 -19 -17 -25 -10 -5 -15 -13 -11 -17
10 -9 52 -11 58 -2 18 24 130 0 130 -27 0 -16 24 -26 47 -20 10 3 2 -2 -17
-11 -31 -15 -73 -18 -168 -15 -13 1 -21 5 -17 10 8 14 -32 24 -69 17 -21 -4
-39 -1 -51 9 -11 8 -37 15 -58 15 -48 0 -56 20 -25 59 28 37 36 38 48 6 9 -25
10 -25 45 -8 l36 17 -32 28 c-17 15 -35 25 -40 22 -5 -3 -20 8 -34 24 -20 24
-33 30 -62 29 -25 -1 -40 4 -47 17 -31 52 -40 58 -67 44 -14 -7 -24 -19 -21
-26 6 -18 -24 -43 -43 -36 -10 4 -15 16 -13 33 2 18 -2 27 -14 29 -12 2 -18
-3 -18 -16 0 -11 -5 -22 -12 -24 -17 -6 -68 3 -63 11 2 4 -2 19 -10 34 -12 24
-12 27 2 27 28 0 7 10 -31 15 -21 3 -35 1 -32 -4 3 -4 -5 -6 -18 -4 -20 4 -24
0 -30 -30 -5 -26 -14 -38 -36 -47 -16 -7 -37 -10 -46 -6 -8 3 -25 -1 -37 -9
-12 -8 -29 -15 -38 -15 -22 0 -71 46 -99 93 -16 28 -28 37 -44 35 -18 -3 -22
-12 -29 -68 -4 -35 -9 -65 -10 -67 -2 -1 -16 1 -33 6 -20 5 -30 15 -32 30 -3
18 -8 22 -25 16 -41 -12 -52 -10 -62 13 -12 27 -29 24 -33 -6 -2 -12 -9 -22
-15 -23 -7 -1 -23 -2 -37 -2 -14 -1 -25 -7 -25 -14 0 -12 -13 -28 -23 -28 -4
-1 -17 -6 -30 -13 -19 -11 -23 -10 -28 3 -3 8 -15 15 -25 15 -11 0 -21 9 -24
23 -6 21 -11 23 -55 21 -50 -3 -66 9 -54 40 8 20 53 29 71 14 17 -14 61 -12
79 3 6 5 13 7 15 4 3 -2 6 6 6 18 2 15 -16 39 -53 74 -31 29 -57 53 -59 53 -2
0 -17 -12 -34 -26z m869 -149 c0 -8 -4 -15 -10 -15 -5 0 -10 7 -10 15 0 8 5
15 10 15 6 0 10 -7 10 -15z m-120 -80 c0 -28 -15 -34 -24 -9 -10 25 -7 34 9
34 9 0 15 -9 15 -25z"/>
<path d="M5024 1055 c-3 -8 -2 -20 2 -27 6 -10 5 -10 -8 0 -15 12 -17 10 -16
-17 1 -35 4 -37 25 -16 17 17 37 10 29 -11 -3 -8 1 -14 10 -14 11 0 13 6 9 20
-4 13 -2 20 7 20 9 1 7 5 -4 14 -10 7 -15 16 -11 20 4 4 1 11 -7 16 -21 13
-30 12 -36 -5z"/>
<path d="M5601 1031 c-15 -10 -8 -41 9 -41 15 0 25 29 14 40 -5 5 -15 5 -23 1z"/>
<path d="M5170 981 c0 -11 6 -21 14 -21 8 0 22 -3 31 -6 13 -5 16 -2 13 12 -2
10 -10 18 -17 16 -7 -1 -19 3 -27 9 -11 9 -14 7 -14 -10z"/>
<path d="M5795 964 c-8 -46 9 -69 31 -40 17 24 18 48 2 64 -19 19 -25 14 -33
-24z"/>
<path d="M5590 970 c0 -5 5 -10 11 -10 5 0 7 5 4 10 -3 6 -8 10 -11 10 -2 0
-4 -4 -4 -10z"/>
<path d="M5084 949 c-3 -6 -3 -22 1 -37 6 -26 7 -26 21 -8 8 11 14 25 14 32 0
16 -28 26 -36 13z"/>
<path d="M5545 940 c3 -5 8 -10 11 -10 2 0 4 5 4 10 0 6 -5 10 -11 10 -5 0 -7
-4 -4 -10z"/>
<path d="M5206 912 c-2 -4 -6 -19 -9 -33 -4 -14 -22 -37 -42 -50 -23 -16 -35
-32 -35 -47 0 -21 4 -23 43 -20 24 2 43 8 43 16 1 6 2 19 3 27 1 9 11 15 29
15 18 0 23 -3 14 -9 -11 -6 -8 -14 11 -35 29 -31 37 -33 37 -6 0 11 -3 19 -7
19 -27 -4 -33 3 -28 35 5 28 1 39 -25 64 -16 17 -32 27 -34 24z"/>
<path d="M5477 713 c-4 -3 -7 -19 -7 -35 0 -35 35 -40 43 -6 8 31 -18 60 -36
41z"/>
<path d="M7140 591 c0 -6 9 -15 20 -21 13 -7 20 -7 20 -1 0 6 -9 15 -20 21
-13 7 -20 7 -20 1z"/>
<path d="M6740 501 c0 -11 25 -21 52 -21 17 0 18 3 8 15 -13 16 -60 21 -60 6z"/>
<path d="M4297 474 c-9 -9 -9 -54 0 -54 3 0 14 6 22 14 9 7 30 18 46 24 l30
11 -30 -1 c-16 0 -37 2 -46 6 -8 4 -18 3 -22 0z"/>
<path d="M6752 438 c-18 -18 -14 -35 8 -33 31 2 49 23 30 35 -20 13 -24 12
-38 -2z"/>
<path d="M6653 387 c-13 -5 -23 -14 -23 -19 0 -6 -21 -9 -47 -8 -27 2 -56 2
-65 1 -28 -2 -49 -32 -48 -65 3 -49 1 -53 -22 -59 -36 -10 -4 -36 43 -35 22 0
43 -3 47 -6 9 -10 -19 -26 -45 -26 -18 0 -23 -6 -23 -25 0 -14 -6 -25 -12 -26
-7 0 7 -6 32 -12 50 -13 131 0 138 22 2 7 -3 27 -11 44 -9 18 -18 40 -21 50
-4 12 -16 17 -46 17 -29 0 -40 4 -40 15 0 8 5 15 11 15 5 0 7 5 3 12 -4 6 -3
8 4 4 11 -7 90 8 134 25 33 13 39 28 24 61 -9 22 -14 24 -33 15z"/>
<path d="M6795 300 c3 -5 8 -10 11 -10 2 0 4 5 4 10 0 6 -5 10 -11 10 -5 0 -7
-4 -4 -10z"/>
<path d="M6226 231 c-9 -13 31 -44 49 -38 9 4 15 1 15 -8 0 -9 -6 -12 -16 -8
-14 5 -14 3 -3 -15 13 -21 46 -35 61 -26 15 10 9 54 -8 54 -9 0 -18 9 -21 19
-6 25 -65 42 -77 22z"/>
<path d="M6355 200 c-3 -5 -1 -10 4 -10 6 0 11 5 11 10 0 6 -2 10 -4 10 -3 0
-8 -4 -11 -10z"/>
<path d="M3653 143 c9 -2 23 -2 30 0 6 3 -1 5 -18 5 -16 0 -22 -2 -12 -5z"/>
<path d="M5290 60 c0 -5 5 -10 10 -10 6 0 10 5 10 10 0 6 -4 10 -10 10 -5 0
-10 -4 -10 -10z"/>
</g>
</svg>
